<?xml version="1.0" encoding="utf-8"?>
<!-- Generator: Adobe Illustrator 20.1.0, SVG Export Plug-In . SVG Version: 6.00 Build 0)  -->
<svg version="1.1" id="Layer_1" xmlns="http://www.w3.org/2000/svg" xmlns:xlink="http://www.w3.org/1999/xlink" x="0px" y="0px"
	 viewBox="0 0 108.7 105.4" style="enable-background:new 0 0 108.7 105.4;" xml:space="preserve">
<style type="text/css">
	.st0{fill:#70B9D3;}
</style>
<path class="st0" d="M98.6,11.3H85.1V5.8c0-3.2-2.6-5.8-5.8-5.8s-5.8,2.6-5.8,5.8v5.4H35.2V5.8c0-3.2-2.6-5.8-5.8-5.8
	s-5.8,2.6-5.8,5.8v5.4H10c-5.5,0-10,4.5-10,10v74.1c0,5.5,4.5,10,10,10h79.6c10.5,0,19-8.5,19-19V21.3
	C108.7,15.8,104.2,11.3,98.6,11.3z M10,19.3h13.5c0.1,3.1,2.7,5.7,5.8,5.7c3.2,0,5.8-2.6,5.8-5.7h38.2c0.1,3.1,2.7,5.7,5.8,5.7
	s5.8-2.6,5.8-5.7h13.5c1.1,0,2,0.9,2,2v15.6H8V21.3C8,20.2,8.9,19.3,10,19.3z M8,95.4V44.8h92.7v35.1H84.3l-0.1,17.6H10
	C8.9,97.4,8,96.5,8,95.4z M92.2,97.1l0.1-9.3h8.3C100,92.4,96.6,96.1,92.2,97.1z"/>
<path class="st0" d="M31.3,63.7c0-3.7,1.3-6.3,3.4-8.1c2.1-1.7,5-2.6,8-2.6c8,0,10.7,5.4,10.7,8c0,6.5-3.6,6.5-3.6,6.7v0.1
	c0,0.4,4.5,0.4,4.5,7.3c0,3.8-2.5,9.8-11.6,9.8c-12.4,0-12.4-9.8-12.2-12.2h7.5c0,1.7,0.3,2.9,1.1,3.7c0.8,1,1.9,1.4,3.3,1.4
	c2.3,0,3.7-0.9,3.7-3.5c0-2.7-1.9-3.2-3.7-3.2c-1.1,0-1.7,0.1-2.3,0.2v-6.1c0.6,0,1.2,0.2,2.3,0.2c1.7,0,3.8-0.4,3.8-2.8
	c0-2-2-2.7-3.6-2.7c-2.1,0-3.9,1.3-3.8,3.9L31.3,63.7L31.3,63.7z"/>
<path class="st0" d="M66.1,66.5h-6.5V60c4,0.1,8-1.6,8.2-6.7h6.5v31.1h-8.2V66.5z"/>
</svg>
