<?xml version="1.0" encoding="utf-8"?>
<!-- Generator: Adobe Illustrator 20.1.0, SVG Export Plug-In . SVG Version: 6.00 Build 0)  -->
<svg version="1.1" id="Слой_1" xmlns="http://www.w3.org/2000/svg" xmlns:xlink="http://www.w3.org/1999/xlink" x="0px" y="0px"
	 viewBox="0 0 124.5 113.2" style="enable-background:new 0 0 124.5 113.2;" xml:space="preserve">
<style type="text/css">
	.st0{fill:#A3BF2A;}
</style>
<g>
	<path class="st0" d="M119.3,0c-1.5,0-36,0.2-57,17.2C41.3,0.2,6.8,0,5.3,0H0v105.5h5.3c27.5,0,44.8,5.2,51.5,7.7h11
		c6.6-2.5,23.7-7.7,51.5-7.7h5.3V0H119.3z M57,102.1c-8.5-2.8-23.9-6.5-46.4-7V10.8c10.2,0.8,33,3.8,46.4,15.7V102.1z M114,95.1
		c-22.5,0.5-38,4.3-46.4,7V26.6c13.5-12,36.2-15,46.4-15.7V95.1z"/>
</g>
</svg>
