<?xml version="1.0" encoding="utf-8"?>
<!-- Generator: Adobe Illustrator 20.1.0, SVG Export Plug-In . SVG Version: 6.00 Build 0)  -->
<svg version="1.1" xmlns="http://www.w3.org/2000/svg" xmlns:xlink="http://www.w3.org/1999/xlink" x="0px" y="0px"
	 viewBox="0 0 28 28" style="enable-background:new 0 0 28 28;" xml:space="preserve">
<style type="text/css">
	.st0{display:none;}
	.st1{display:inline;}
</style>
<g id="Layer_1">
	<g id="Page-1">
		<g id="Core" transform="translate(-504.000000, -88.000000)">
			<g id="cloud-download" transform="translate(504.000000, 88.000000)">
				<path id="Shape" d="M22.6,12.7c-0.8-4-4.3-7-8.6-7c-3.4,0-6.3,1.9-7.7,4.7c-3.6,0.5-6.3,3.4-6.3,7c0,3.9,3.2,7,7,7h15.2
					c3.3,0,5.8-2.6,5.8-5.8C28,15.5,25.6,12.9,22.6,12.7L22.6,12.7z M19.8,16.2L14,22l-5.8-5.8h3.5v-4.7h4.7v4.7H19.8L19.8,16.2z"/>
			</g>
		</g>
	</g>
</g>
<g id="Layer_3" class="st0">
	<g transform="translate(96 144)" class="st1">
		<path d="M-82-142c6.6,0,12,5.4,12,12s-5.4,12-12,12s-12-5.4-12-12C-94-136.6-88.6-142-82-142z M-82-144c-7.7,0-14,6.3-14,14
			c0,7.7,6.3,14,14,14s14-6.3,14-14C-68-137.7-74.3-144-82-144L-82-144z M-86-137c-1.1,0-2,1.3-2,3c0,1.7,0.9,3,2,3s2-1.3,2-3
			C-84-135.7-84.9-137-86-137z M-78-137c-1.1,0-2,1.3-2,3c0,1.7,0.9,3,2,3s2-1.3,2-3C-76-135.7-76.9-137-78-137z M-73.4-123.2
			c0.4-0.3,0.5-1,0.2-1.4c-2.1-2.8-5.4-4.4-8.8-4.4s-6.7,1.6-8.8,4.4c-0.3,0.4-0.2,1.1,0.2,1.4c0.4,0.3,1.1,0.2,1.4-0.2
			c1.7-2.3,4.4-3.6,7.2-3.6c2.8,0,5.5,1.3,7.2,3.6c0.2,0.3,0.5,0.4,0.8,0.4C-73.8-123-73.6-123.1-73.4-123.2L-73.4-123.2z"/>
	</g>
</g>
<g id="Layer_2" class="st0">
	<path class="st1" d="M14,17.5c-0.5,0-0.9-0.2-1.8-0.6L0,10.5v12.3c0,1,0.8,1.8,1.8,1.8h24.5c1,0,1.8-0.8,1.8-1.8V10.5l-12.3,6.4
		C14.9,17.3,14.5,17.5,14,17.5z M26.3,3.5H1.7C0.8,3.5,0,4.3,0,5.2v1.3l14,7.4l14-7.4V5.2C28,4.3,27.2,3.5,26.3,3.5z"/>
</g>
</svg>
