<?xml version="1.0" encoding="utf-8"?>
<!-- Generator: Adobe Illustrator 19.1.0, SVG Export Plug-In . SVG Version: 6.00 Build 0)  -->
<svg version="1.1" id="Layer_1" xmlns="http://www.w3.org/2000/svg" xmlns:xlink="http://www.w3.org/1999/xlink" x="0px" y="0px"
	 viewBox="0 0 25.2 31.8" style="enable-background:new 0 0 25.2 31.8;" xml:space="preserve">
<style type="text/css">
	.st0{fill:none;stroke:#9AB430;stroke-width:0.9421;stroke-linecap:round;stroke-linejoin:round;stroke-miterlimit:10;}
	.st1{fill:none;stroke:#9AB430;stroke-width:0.942;stroke-linecap:round;stroke-linejoin:round;stroke-miterlimit:10;}
	.st2{fill:#9AB430;}
	.st3{fill:#FFFFFF;}
	.st4{fill:none;stroke:#9AB430;stroke-width:1.726;stroke-linecap:round;stroke-linejoin:round;stroke-miterlimit:10;}
</style>
<g>
	<line class="st0" x1="4.6" y1="6.5" x2="20.9" y2="6.5"/>
	<line class="st0" x1="4.6" y1="11.2" x2="20.9" y2="11.2"/>
	<line class="st1" x1="4.6" y1="25.4" x2="8.9" y2="25.4"/>
	<line class="st1" x1="4.6" y1="20.7" x2="8.9" y2="20.7"/>
	<line class="st1" x1="4.6" y1="15.9" x2="8.9" y2="15.9"/>
	<g>
		<rect x="11.1" y="13.4" class="st2" width="14.1" height="18"/>
		<g>
			<path class="st3" d="M13.2,20.8c0-0.2,0.2-0.4,0.4-0.4h1.1c0.8,0,1.4,0.5,1.4,1.2v0c0,0.8-0.6,1.2-1.4,1.2H14v0.7
				c0,0.2-0.2,0.4-0.4,0.4c-0.2,0-0.4-0.2-0.4-0.4V20.8z M14.6,22.2c0.4,0,0.6-0.2,0.6-0.5v0c0-0.3-0.2-0.5-0.6-0.5H14v1.1H14.6z"/>
			<path class="st3" d="M16.6,20.8c0-0.2,0.2-0.4,0.4-0.4h1c1.1,0,1.9,0.8,1.9,1.8v0c0,1-0.8,1.8-1.9,1.8h-1c-0.2,0-0.4-0.2-0.4-0.4
				V20.8z M18,23.3c0.6,0,1.1-0.4,1.1-1.1v0c0-0.6-0.4-1.1-1.1-1.1h-0.6v2.1H18z"/>
			<path class="st3" d="M20.5,20.8c0-0.2,0.2-0.4,0.4-0.4h2c0.2,0,0.4,0.2,0.4,0.4c0,0.2-0.2,0.4-0.4,0.4h-1.6v0.8h1.4
				c0.2,0,0.4,0.2,0.4,0.4c0,0.2-0.2,0.4-0.4,0.4h-1.4v1c0,0.2-0.2,0.4-0.4,0.4c-0.2,0-0.4-0.2-0.4-0.4V20.8z"/>
		</g>
	</g>
	<polyline class="st4" points="8.5,30.6 1.3,30.6 1.3,1.3 24.3,1.3 24.3,10.9 	"/>
</g>
</svg>
