<svg id="Layer_1" data-name="Layer 1" xmlns="http://www.w3.org/2000/svg" xmlns:xlink="http://www.w3.org/1999/xlink" viewBox="0 0 1089.4 346.3"><defs><style>.cls-1{fill:none;}.cls-2{fill:#a3bf2a;}.cls-3,.cls-8{fill:#fff;}.cls-19,.cls-4{fill:#70b9d3;}.cls-18,.cls-5,.cls-6,.cls-7{fill:#e0bdaf;}.cls-11,.cls-12,.cls-16,.cls-17,.cls-19,.cls-5,.cls-6,.cls-7,.cls-8,.cls-9{stroke:#000;}.cls-16,.cls-19,.cls-5,.cls-6,.cls-7,.cls-8{stroke-linecap:round;stroke-linejoin:round;}.cls-16,.cls-19,.cls-5,.cls-8{stroke-width:1.73px;}.cls-6{stroke-width:1.32px;}.cls-7{stroke-width:1.55px;}.cls-11,.cls-12,.cls-17,.cls-9{stroke-miterlimit:10;}.cls-9{stroke-width:1.69px;}.cls-10{fill:#edeeee;}.cls-11{stroke-width:0.47px;}.cls-12{fill:#acadb0;stroke-width:0.69px;}.cls-13{clip-path:url(#clip-path);}.cls-14{clip-path:url(#clip-path-2);}.cls-15{clip-path:url(#clip-path-3);}.cls-16{fill:#e2cc84;}.cls-17{fill:#60a297;stroke-width:1.29px;}</style><clipPath id="clip-path"><path class="cls-1" d="M143.3,118.4c1-15.9,15.3-19.3,22.2-16,0,0,7,7.7,3,21.8C168.6,124.2,158.3,118,143.3,118.4Z"/></clipPath><clipPath id="clip-path-2"><path class="cls-1" d="M139.47,119.06c-3.14-15.65-23.3-17.79-32.27-13.64,0,0-9.53,7.84-1.38,22.58C105.82,127.9,118.74,121,139.47,119.06Z"/></clipPath><clipPath id="clip-path-3"><path class="cls-1" d="M107.2,105.42s-9.53,7.84-1.38,22.58c0-.1,12.92-7,33.65-8.94"/></clipPath></defs><title>logo_evenaar</title><ellipse class="cls-2" cx="434.88" cy="130.29" rx="653.47" ry="213.39" transform="translate(-2.26 7.81) rotate(-1.03)"/><ellipse class="cls-3" cx="431.9" cy="114.3" rx="653.5" ry="213.4"/><path class="cls-2" d="M843.3,173.4l.3,10.4c.07,2.45.19,4.88.44,7.19l11-2.55c-.2-1.81-.29-3.66-.35-5.53l-.3-13.6c-.5-19.1-5.7-28-21.2-29.4v-.3c16.5-3.2,22.4-16.5,22.4-31.5,0-19.3-11.5-31.1-32.2-31.1H786.5V201.2h11.1V144.5h21C838.6,144.5,842.6,151.5,843.3,173.4Zm-26.7-38.3H797.5V86.5h20.3c20.2,0,26.6,9.2,26.6,24.3C844.4,127.1,834.2,135.1,816.6,135.1Z"/><path class="cls-2" d="M312.5,77h11.8l27.6,112.3h.3L379.9,77h11.8L359,201.1H345.1Z"/><path class="cls-2" d="M410,77h61.5v9.4H421.1v45.2h47.1V141H421.1v50.8h52v9.4H410Z"/><path class="cls-2" d="M495.2,77h15l47.5,108.1h.3V77h11.1V201.1h-15L506.6,93h-.3V201.1H495.2Z"/><path class="cls-2" d="M623.3,77h13.9l36.7,124.1H662.1L652,165H608.5l-10.1,36.2H586.6Zm26.2,78.6L630.4,85.7h-.3L611,155.6Z"/><path class="cls-2" d="M718.2,77h13.9l36.7,124.1H757L746.9,165H703.4l-10.1,36.2H681.5Zm26.3,78.6L725.4,85.7H725l-19.1,69.9Z"/><circle class="cls-4" cx="119.46" cy="135.07" r="118" transform="translate(-23.08 245.51) rotate(-86.28)"/><path class="cls-5" d="M232.4,103.6c-3.8.5-1.2,3.1-9,11.1-7.5,7.8-4.5,12.5-9.8,17.5-9.6,6.2-30.5,13.8-40.5,18.3-21,9.4-24.6,42.5,6.2,28.5,22.7-10.2,29-22.2,38.7-30.5a108.82,108.82,0,0,0,15.3-5.6c21.1-7.3,20.8-37.5-4.4-21.3C238.5,114.3,236.9,103.1,232.4,103.6Z"/><path class="cls-6" d="M244.2,137.2c-1.3-2.6-3.3-1.6-4.7-1.2-6.3,1.8-4.9,8.9,2.6,5.8C243.4,141.2,245.3,139.5,244.2,137.2Z"/><path class="cls-6" d="M243.6,131.6c-1.3-2.6-3.3-1.6-4.7-1.2-6.3,1.8-4.9,8.9,2.6,5.8C242.8,135.6,244.7,133.9,243.6,131.6Z"/><path class="cls-6" d="M242.7,125.4c-1.3-2.6-3.3-1.6-4.7-1.2-6.3,1.8-4.9,8.9,2.6,5.8C241.9,129.4,243.8,127.7,242.7,125.4Z"/><path class="cls-2" d="M230.9,78.5l60.8-9.6,1.5,9.3L243.3,86l7.1,44.6,46.5-7.4,1.5,9.3-46.5,7.4,8,50.1,51.3-8.1,1.5,9.3-62.3,9.9Z"/><path class="cls-7" d="M252.4,113.6c-1.2-3.2-3.9-1.8-5.5-1.3-7.3,2.3-5.5,10.5,3.1,6.7C251.6,118.3,253.7,116.9,252.4,113.6Z"/><path class="cls-2" d="M256.4,16.9h11c12.8,0,14.4,9.2,14.4,20.6,0,10.4-2.6,20.6-13.9,20.6H256.3V16.9Zm5,37.1h5.3c8.8,0,9.8-9,9.8-16.4,0-8-.5-16.5-9.8-16.5h-5.3Z"/><path class="cls-2" d="M289.9,16.9h21.3v4.5H295V34.3h15.3v4.5H295V53.6h16.9v4.5h-22Z"/><path class="cls-4" d="M352.5,59.1s5.2-.7,14.9-2.1,24-3.1,42.3-4.9c36.5-3.7,88.8-7.3,151.7-7.8,31.5-.3,65.6.3,101.6,2s74,4.8,113.1,9.9c19.5,2.6,39.3,5.7,59.3,9.6a538.47,538.47,0,0,1,59.8,14.9,268.16,268.16,0,0,1,29.4,11.1,158.61,158.61,0,0,1,14.2,7.3,80.08,80.08,0,0,1,13.2,9.5c1,.9,2,1.9,3,2.9s1.9,2.1,2.7,3.2a22.55,22.55,0,0,1,2.4,3.6l1,1.9a17.6,17.6,0,0,1,.9,2,24.29,24.29,0,0,1,1.7,8.9,23.51,23.51,0,0,1-1.9,8.8,38.84,38.84,0,0,1-10.3,13.5,83.17,83.17,0,0,1-13.3,9.6,191,191,0,0,1-29,13.6c-9.9,3.8-20,7-30.2,9.9-20.3,5.8-40.8,10.2-61.2,14-40.9,7.5-81.6,12.2-121,15.4s-77.7,4.8-114.1,5.3-70.6.2-102.4-.4-60.9-1.8-86.9-3.4-48.6-3.7-67.3-6c-4.7-.6-9.1-1.2-13.3-1.7s-8.1-1.2-11.8-1.8c-1.8-.3-3.6-.5-5.3-.8s-3.3-.6-4.9-.9c-3.1-.5-6-1-8.5-1.5s-4.8-.9-6.8-1.3-3.7-.8-5-1c-2.8-.6-4.3-.9-4.6-1-8.4-2-14.4-6.7-13.4-10.3s8.3-4.9,16.4-2.9c.3.1,1.8.4,4.4,1,1.3.3,3,.6,4.9,1.1s4.1.9,6.6,1.4,5.3,1,8.3,1.5q2.25.45,4.8.9c1.7.3,3.4.5,5.2.8,3.6.6,7.4,1.2,11.5,1.8s8.5,1.2,13.1,1.8c18.4,2.4,40.8,4.7,66.5,6.6s54.7,3.3,86.3,4.3,65.9,1.4,102,1.4,74.2-1.3,113.5-4.1,79.7-7.1,120.3-14.1c20.3-3.5,40.6-7.8,60.7-13.2,10-2.7,19.9-5.8,29.7-9.4a183.17,183.17,0,0,0,28.1-12.8,77.72,77.72,0,0,0,12.3-8.7c3.7-3.2,7-7,8.8-11.1a16.09,16.09,0,0,0,.3-12.9,11.11,11.11,0,0,0-.7-1.6l-.8-1.5a18.72,18.72,0,0,0-2-2.9,31.13,31.13,0,0,0-2.3-2.8c-.9-.9-1.7-1.8-2.6-2.6a77,77,0,0,0-12.1-8.9c-4.3-2.6-8.9-5-13.5-7.2a292.19,292.19,0,0,0-28.6-11.2,546.67,546.67,0,0,0-59.1-15.4C814.7,66.3,795,63,775.6,60.3c-38.9-5.5-76.7-8.9-112.7-11s-70-3-101.4-3.1c-62.9-.1-115.2,3-151.7,6.3-18.3,1.6-32.6,3.2-42.3,4.4C357.7,58.4,352.5,59.1,352.5,59.1Z"/><path class="cls-4" d="M248.4,193.3v24.9a3,3,0,0,0,6,0V202a1.7,1.7,0,0,1,3.4,0v7.9a3,3,0,1,0,6,0v-3.8a1.7,1.7,0,0,1,3.4,0v9.7a1.9,1.9,0,1,0,3.8,0V193.4l-22.6-.1Z"/><path class="cls-8" d="M119,175.5c.1,11.8,6.4,39.5,13.7,36.6,16.1-6.5,38.1-20.1,38.1-20.1,6.8-.9,9.2-51.5-9.2-42.9l-15.2,7.7S118.9,164.3,119,175.5Z"/><path class="cls-5" d="M214.3,159.1c9.3-6.2,4.5-3.3,8.8-6.6s12.7,1.4-1.6,12.5C217.8,168,205.2,165.2,214.3,159.1Z"/><path class="cls-9" d="M250.8,194.4a10.12,10.12,0,0,1-5.1-3.1c-3.8-4.4-2.4-11.4-5.5-16.7,0,0,.5-.5,3.1-1,3.5-.8,6.1.8,8,3.4a21.41,21.41,0,0,1,2.8,6.1c1,3.4,4.3-4.7,4.3-4.7C266.8,187.3,261,197.4,250.8,194.4Z"/><path class="cls-10" d="M252.8,181.5c1.2,1,1.9,3,.6,4.3s-1.9-.9-2.2-2.2-2-5.4-4-3.5.7,4,3.3,6.6-.1,2.9-1,2.4-.4-3.1-3.6-5-.4,3.6.9,4.5,2.7,3.6-.3,1.9c-1.3-.7-1.4-.2-.8.8-3.8-4.4-2.4-11.4-5.5-16.7,0,0,.5-.5,3.1-1,3.5-.8,6.1.8,8,3.4a9.23,9.23,0,0,0-.8.5C249.3,178.4,251.6,180.5,252.8,181.5Z"/><path class="cls-4" d="M258.3,178.4c8.5,8.9,2.6,19-7.6,16a10.12,10.12,0,0,1-5.1-3.1c-.5-1-.5-1.5.8-.8,3,1.7,1.6-1,.3-1.9s-4.2-6.4-.9-4.5,2.7,4.5,3.6,5,3.6.3,1-2.4-5.2-4.7-3.3-6.6,3.7,2.3,4,3.5,1,3.5,2.2,2.2.6-3.3-.6-4.3-3.5-3.1-2.4-4a3.51,3.51,0,0,1,.8-.5,21.41,21.41,0,0,1,2.8,6.1C255.1,186.6,258.3,178.4,258.3,178.4Z"/><path class="cls-11" d="M242,170.7c.1.1-.7.8-1.7,1.6a5,5,0,0,1-2,1.2l-25.8-33.3c-.1-.1.7-.8,1.7-1.6a5,5,0,0,1,2-1.2Z"/><path class="cls-12" d="M243.8,173.1c.2.2-.5,1.1-1.5,1.9s-2,1.2-2.2,1l-2.9-3.7c-.2-.2.5-1.1,1.5-1.9s2-1.2,2.2-1Z"/><path class="cls-5" d="M247.1,159.1c-5.5-.1-17.3-.5-28.4-1.4-10.9-.9-6.7,10.1-10.8,16.2,0,0-2.6,3.2-5.1,6.2-.9.8-1.8,1.5-2.8,2.3a116.61,116.61,0,0,1-23.3,14.8c-20.8,10-14.4,46.9,12.5,26.4,19.8-15.1,25.7-24.4,33.3-34.7,3.9-2.1,10-2.5,12.9-4.8,3.1-2.5-.4-16.4,2.7-16.2C256.1,169.2,252.6,159.1,247.1,159.1Z"/><path class="cls-5" d="M93.6,182.4c3.8-8.4,7.5-24.9,2.9-32.5s1.9-13.7,9.3-7.9,24.1,3,26.3,12.4c11,47-10.3,40.5-19.6,40S93.6,182.4,93.6,182.4Z"/><path class="cls-5" d="M72.3,124.9c2.6,11.7,34.7,39.3,66.5,37.3,18.8-1.2,26.8-21.8,31.3-36.6,2.5-8.3,15.6-74.3-47.9-73.1C50.6,54,66.9,100.3,72.3,124.9Z"/><path d="M122.7,141.9c3.3,1.8,19,9.3,31.5-1-6,5.3-5.8,12.5-15.8,12.3S130,146.2,122.7,141.9Z"/><path id="SVGID" class="cls-3" d="M143.3,118.4c1-15.9,15.3-19.3,22.2-16,0,0,7,7.7,3,21.8C168.6,124.2,158.3,118,143.3,118.4Z"/><g class="cls-13"><ellipse class="cls-2" cx="153.06" cy="118.01" rx="11.4" ry="11.1" transform="translate(8.16 245.91) rotate(-79.06)"/><ellipse cx="153.06" cy="118.01" rx="7.8" ry="7.6" transform="translate(8.16 245.91) rotate(-79.06)"/><ellipse class="cls-3" cx="148.76" cy="110.35" rx="3.6" ry="3.5" transform="translate(12.19 235.47) rotate(-79.06)"/><circle class="cls-3" cx="154.59" cy="110.88" r="1.8" transform="translate(16.4 241.63) rotate(-79.06)"/><circle class="cls-3" cx="152.6" cy="114.32" r="1" transform="translate(11.41 242.46) rotate(-79.06)"/></g><path d="M165.6,102.4c.1-.1.3,0,1,.7a12.3,12.3,0,0,1,2.9,5.1,23,23,0,0,1,.6,10.1,32.06,32.06,0,0,1-1.3,5.3,29.44,29.44,0,0,0,.8-5.3,26.84,26.84,0,0,0-.9-9.8,14.15,14.15,0,0,0-2.6-5C165.5,102.7,165.5,102.5,165.6,102.4Z"/><path d="M167.5,102.8c0,.1-.6,0-3.2-.7-.7-.1-1.4-.3-2.4-.4a7.57,7.57,0,0,1-1.5-.1h-.9c-.3,0-.6.1-.9.1a15.38,15.38,0,0,0-9,3.9,17.21,17.21,0,0,0-4,5.2,14,14,0,0,0-1.8,6.7v.4h2.4c1.2,0,2.4.2,3.6.3a66.55,66.55,0,0,1,6.7,1.2,47.87,47.87,0,0,1,10.1,3.6,26.68,26.68,0,0,1,2.7,1.5,6.41,6.41,0,0,1,.9.7l-.9-.6a30.76,30.76,0,0,0-2.8-1.5,51.92,51.92,0,0,0-10.1-3.3,64.86,64.86,0,0,0-6.6-1.1c-1.2-.1-2.3-.2-3.5-.2h-3.2c-.1,0,0-.1,0-.2v-1a15.9,15.9,0,0,1,1.8-7.1,19.14,19.14,0,0,1,4.2-5.5,16.38,16.38,0,0,1,9.5-4.1c.3,0,.7-.1,1-.1h.9c.6,0,1.1.1,1.6.1,1,.2,1.8.4,2.4.5A24.44,24.44,0,0,1,167.5,102.8Z"/><path class="cls-3" d="M139.4,118.9c-3.5-16-23.4-17.6-32.4-13.4,0,0-8.6,8.7-1.2,22.5C105.8,128,118.9,120.4,139.4,118.9Z"/><g class="cls-14"><ellipse class="cls-2" cx="112.65" cy="120.11" rx="11.1" ry="11.4" transform="translate(-9.34 230.73) rotate(-89.04)"/></g><g class="cls-15"><ellipse cx="112.65" cy="120.11" rx="7.6" ry="7.8" transform="translate(-9.34 230.73) rotate(-89.04)"/></g><path d="M107,105.5c.1.1,0,.3-.6,1.1-.1.2-.4.4-.6.7s-.4.6-.7,1.1a15.6,15.6,0,0,0-1.6,3.4,20.27,20.27,0,0,0-.7,5.1,21.76,21.76,0,0,0,.7,5.2c.4,1.6.9,2.9,1.2,3.9s.7,1.5.7,1.5-.3-.5-.8-1.4a20.63,20.63,0,0,1-1.6-3.8,21.68,21.68,0,0,1-1-5.3,15.73,15.73,0,0,1,.6-5.4,12,12,0,0,1,1.8-3.6c.3-.4.6-.8.8-1.1a4.62,4.62,0,0,1,.7-.7C106.7,105.5,106.9,105.4,107,105.5Z"/><path d="M104.4,106.2c0-.1.6-.5,3.8-1.7l3.1-.8,2-.3a9,9,0,0,1,2.4-.2,27.68,27.68,0,0,1,13.1,2.4,22,22,0,0,1,7.1,5.2l.8.9a3.59,3.59,0,0,1,.7,1,8.65,8.65,0,0,1,.7,1l.5,1.1a20.36,20.36,0,0,1,.9,2.2c.1.4.1.8.2,1.2l.1.9c.2.5-.4.3-.7.4l-2.4.2-2.3.3c-1.5.2-3,.4-4.5.7-3,.5-5.8,1.2-8.5,1.9a90.89,90.89,0,0,0-13,4.5c-1.6.7-2.8,1.4-3.6,1.8s-1.2.8-1.2.8.4-.3,1.2-.8a27.53,27.53,0,0,1,3.6-1.9,91.23,91.23,0,0,1,12.9-4.9c2.6-.8,5.5-1.5,8.5-2.1,1.5-.3,3-.5,4.5-.8l2.3-.3,2.2-.2h0v-.3c-.1-.4-.1-.7-.2-1.1a18,18,0,0,0-.8-2.1l-.5-1-.6-.9a5.5,5.5,0,0,0-.7-.9l-.7-.8a20.34,20.34,0,0,0-6.9-4.9,26.67,26.67,0,0,0-12.6-2.4,16.41,16.41,0,0,0-2.3.2c-.7.1-1.4.1-2,.2-1.2.3-2.2.5-3,.7C105.2,106.2,104.5,106.4,104.4,106.2Z"/><path d="M134.4,135.1c7.5-3,8.3-4.3,12.4-1.7S134.4,135.1,134.4,135.1Z"/><path d="M137.2,154.9c2.6,1.3,3.7-.1,4.9.5.8-.1-.6,1.3-2.1,1.1C138.6,156.6,137,155,137.2,154.9Z"/><path class="cls-8" d="M89,249.2c1.1-15.2-3.2-46.2-3.1-57.4C86,180,87,165.3,98.6,162.3c-1.4,7.6,5.8,5.5,13.2,3.1,5.7-3.3,24.9,1.3,32.1,4.2,16.1,6.5,38.1,20.1,38.1,20.1,6.8.9,9.2,51.5-9.2,42.9l-15.2-7.7,5.2,20.2C162.9,245.1,129.4,260.5,89,249.2Z"/><path d="M155.9,223.2c-.1.2-.4.4-1.7.1a10.38,10.38,0,0,0-1.2-.3,14.24,14.24,0,0,1-1.6-.5,16.46,16.46,0,0,1-2.1-.9,21,21,0,0,1-2.6-1.3,30.89,30.89,0,0,1-5.7-4.2,24.73,24.73,0,0,1-4.4-5.5,22,22,0,0,1-2.2-4.9c-.2-.6-.3-1.2-.4-1.5a2.8,2.8,0,0,1-.1-.6,4.2,4.2,0,0,1,.2.5,11.43,11.43,0,0,0,.6,1.4,21.18,21.18,0,0,0,2.7,4.5,30.86,30.86,0,0,0,4.7,4.9,46.16,46.16,0,0,0,5.6,3.8,20.13,20.13,0,0,0,2.5,1.3,11.33,11.33,0,0,0,2,.9c.6.3,1.1.5,1.5.7a11.73,11.73,0,0,1,1.1.5C155.7,222.7,155.9,223,155.9,223.2Z"/><path d="M141.6,168.8c-.1.2-.3.3-1.3.1-.5-.1-1.2-.2-2.2-.4-.5-.1-1-.2-1.7-.3a12.48,12.48,0,0,0-2.1-.2,30.48,30.48,0,0,0-5.2.1,25.49,25.49,0,0,0-5.1,1.1,21.89,21.89,0,0,0-3.7,1.7c-.4.3-.8.5-1,.7l-.3.3.3-.3a8.18,8.18,0,0,1,.9-.8,15.19,15.19,0,0,1,3.5-2.2,19.8,19.8,0,0,1,5.2-1.6,26.08,26.08,0,0,1,5.5-.3,13,13,0,0,1,2.2.3c.7.1,1.2.2,1.7.3a11.47,11.47,0,0,1,2.2.7C141.5,168.4,141.6,168.6,141.6,168.8Z"/><path d="M155,225.9c.1.2,0,.4-.9,1q-.6.45-1.8,1.2c-.4.3-.9.6-1.4,1s-1.1.8-1.7,1.3a32.27,32.27,0,0,0-3.7,3.7,23.24,23.24,0,0,0-2.8,4.4,22.9,22.9,0,0,0-1.4,3.8,7.38,7.38,0,0,0-.2,1.2.58.58,0,0,1-.1.4v-.4a5.74,5.74,0,0,1,.1-1.2,15.46,15.46,0,0,1,1-4,22.65,22.65,0,0,1,2.6-4.8,23.72,23.72,0,0,1,3.7-4,22,22,0,0,1,1.8-1.4,13,13,0,0,1,1.5-1,9.05,9.05,0,0,1,2-1C154.6,225.7,154.9,225.7,155,225.9Z"/><path d="M153.4,225.2c0,.1-.2.2-1,.2a32.45,32.45,0,0,0-4.6-.3,19.35,19.35,0,0,0-4,.4,18.85,18.85,0,0,0-3.8,1.2,12.79,12.79,0,0,0-2.7,1.6,4.35,4.35,0,0,0-.7.6c-.2.1-.2.2-.2.2a1.24,1.24,0,0,0,.2-.3,3.19,3.19,0,0,1,.6-.7,10.82,10.82,0,0,1,2.5-1.9,19.85,19.85,0,0,1,3.9-1.6,21.25,21.25,0,0,1,4.2-.6,24.05,24.05,0,0,1,3.1.2,5.28,5.28,0,0,1,1.7.4C153.3,224.9,153.4,225.1,153.4,225.2Z"/><path class="cls-16" d="M112.8,57.6c7.7,0,21.5,4.4,29.9-22.9a7,7,0,0,1-3,1.9s6.4-13.8-7.2-27.2a4.62,4.62,0,0,0-.4,2.7S113-5.5,93.8,7.7s-21.6,28-15,38.8c0,0,.6-3.8,3.5-4.8a35.23,35.23,0,0,0,4.1,16.4s1.3-9.3,6.4-11.8C92.9,46.4,96.6,57.7,112.8,57.6Z"/><path d="M93.8,47.8c-.2.1-.4,0-.9-.9a7.66,7.66,0,0,1-.9-2,13.78,13.78,0,0,1-.6-1.6,10.81,10.81,0,0,1-.5-2.1,28.67,28.67,0,0,1-.5-5.2,25.94,25.94,0,0,1,.8-5.1,18,18,0,0,1,1.6-3.6c.3-.4.5-.7.7-1l.3-.3a1.09,1.09,0,0,0-.2.4l-.5,1a17.86,17.86,0,0,0-1.2,3.7,26,26,0,0,0-.4,5,36.47,36.47,0,0,0,.6,4.9c.2.7.3,1.4.5,2a13.08,13.08,0,0,0,.5,1.5c.3.9.5,1.5.7,2C94,47.5,93.9,47.8,93.8,47.8Z"/><path class="cls-17" d="M127.7,62.8c.5-3.8,2.3-10.7-8.8-11.1S108.5,54,108.5,60C108.5,60,117.3,56.3,127.7,62.8Z"/><path class="cls-16" d="M89.6,145.1c-13.5-11.7-13.5-37.4-7-44.7,0,0,3.9,4,9.1,17.4,0,0-2.5-25.6,2.9-29,0,0,19.6,1.3,19.4,16.1,0,0,14.4-5.6,19.8-26.4,0,0,14.2,1.4,15.8,27.1,0,0,13.9-14.5,7-31.5,0,0,16.2,5,16.5,29.6,0,0,5.6-24.8-6.3-39.7l3.1,1s-14.5-26.4-37.1-26.9c0,0,.7-2.1,4.5-2.1,0,0-5.7-1.7-14.1,1.1s-4.1-5.1-22.4,3.4S60.9,63,63.3,103.1C64.4,120.8,72.2,132.2,89.6,145.1Z"/><path class="cls-18" d="M87.8,123.1c-2.4,3-14.5,5-16.8-9.5-1.9-12.4,7.1-13.7,11.4-11.8"/><path d="M82.4,101.9c0,.1-.2.1-.5.1s-.9-.1-1.8-.2a8.57,8.57,0,0,0-3.9.5,8.3,8.3,0,0,0-2.5,1.5,7.08,7.08,0,0,0-1.8,3.2,18.21,18.21,0,0,0,.4,9.5,15.71,15.71,0,0,0,.9,2.3,11.73,11.73,0,0,0,.5,1.1c.2.3.5.7.7,1a9.09,9.09,0,0,0,3.5,3,9.84,9.84,0,0,0,4,1,10.64,10.64,0,0,0,3.3-.4,4.33,4.33,0,0,0,1.2-.5,9.22,9.22,0,0,1,.8-.5,2.83,2.83,0,0,1,.6-.5l-.6.6a5.55,5.55,0,0,1-.8.6,6.66,6.66,0,0,1-1.2.6,10.74,10.74,0,0,1-3.4.7,11.6,11.6,0,0,1-4.3-.8,10.6,10.6,0,0,1-4-3.1c-.3-.4-.5-.7-.8-1.1l-.6-1.2a10.89,10.89,0,0,1-1-2.5c-1-3.4-1.5-7-.6-10.3a8.69,8.69,0,0,1,2.2-3.9,8.84,8.84,0,0,1,3-1.8,8.46,8.46,0,0,1,4.4-.2,5.36,5.36,0,0,1,1.9.7C82.4,101.7,82.4,101.8,82.4,101.9Z"/><path d="M84.8,118c.1.1.1.2,0,.4a1.74,1.74,0,0,1-.9.7,3.43,3.43,0,0,1-2.7.1,6.16,6.16,0,0,1-3.4-3.1,5.61,5.61,0,0,1-.6-2.9,3.51,3.51,0,0,1,1.3-2.7,4.45,4.45,0,0,1,2.1-1c.1,0,.3-.1.4-.1h.5c.1,0,0-.2-.1-.2s-.1-.1-.2-.3-.2-.3-.3-.4l-.3-.3a3.68,3.68,0,0,0-1.5-.8,5.84,5.84,0,0,0-2.6-.1c-1.4.4-1.7,1.1-1.7,1.1a1.73,1.73,0,0,1,.3-.4,3.62,3.62,0,0,1,1.3-.9,5.07,5.07,0,0,1,2.8-.1,3.81,3.81,0,0,1,1.7.8.78.78,0,0,1,.4.4l.4.4a4.35,4.35,0,0,1,.4.7,2.12,2.12,0,0,1,.3.7,5.64,5.64,0,0,1-.7.1c-.2,0-.3.1-.5.1s-.2.1-.4.1a4.69,4.69,0,0,0-1.6,1,2.73,2.73,0,0,0-.8,1.9,6,6,0,0,0,.6,2.3,5,5,0,0,0,2.5,2.5,3.73,3.73,0,0,0,2,.2,3,3,0,0,0,.9-.3C84.6,117.9,84.7,117.9,84.8,118Z"/><path class="cls-19" d="M70.8,70.2c3.6,2.8,9.6,8.9,16.9-2.3s3.9-12.1-2.3-15.8C85.3,52.1,83.8,63.4,70.8,70.2Z"/><path class="cls-16" d="M79.6,65.7c4.9-7.8,18.3-18.9-3.9-45a8.63,8.63,0,0,1,0,4.3S65.9,9.6,43.5,14.8c0,0,.4,1,2.5,2.1,0,0-30.1,8-29,36S33.5,91.2,48.7,91.4a35.27,35.27,0,0,1-4.6-5.1s7.2,4.5,16.7.1c0,0-6-1-5.2-7.7C55.5,78.6,69.3,82.1,79.6,65.7Z"/><path d="M57.4,78.6c0,.2-.3.4-1.5.3a4.48,4.48,0,0,1-1.1-.1,6.05,6.05,0,0,0-1.5-.2c-.6-.1-1.2-.3-2-.5s-1.6-.5-2.5-.8a25,25,0,0,1-5.6-2.9,23.14,23.14,0,0,1-4.6-4.1,20.37,20.37,0,0,1-2.6-4,5.54,5.54,0,0,1-.5-1.3,4.2,4.2,0,0,0-.2-.5l.2.4a8.76,8.76,0,0,0,.7,1.2,14.76,14.76,0,0,0,3,3.5A26.14,26.14,0,0,0,44,73.2a28.7,28.7,0,0,0,5.4,2.5c.9.3,1.6.6,2.3.8a18,18,0,0,0,1.9.5c.5.1,1,.3,1.4.4s.7.2,1,.3C57.3,78.1,57.5,78.4,57.4,78.6Z"/><ellipse class="cls-3" cx="117.18" cy="111.7" rx="3.5" ry="3.6" transform="translate(-7.55 8.5) rotate(-4.02)"/><circle class="cls-3" cx="111.32" cy="111.72" r="1.8" transform="translate(-7.56 8.09) rotate(-4.02)"/><circle class="cls-3" cx="112.94" cy="115.25" r="1" transform="matrix(1, -0.07, 0.07, 1, -7.81, 8.21)"/></svg>